<?xml version="1.0" encoding="utf-8"?>
<!-- Generator: Adobe Illustrator 26.0.0, SVG Export Plug-In . SVG Version: 6.00 Build 0)  -->
<svg version="1.1" id="Layer_1" xmlns="http://www.w3.org/2000/svg" xmlns:xlink="http://www.w3.org/1999/xlink" x="0px" y="0px"
	 viewBox="0 0 918 1000" style="enable-background:new 0 0 918 1000;" xml:space="preserve">
<style type="text/css">
	.st0{fill:#FCAF31;}
	.st1{fill:#2A3547;}
	.st2{fill:#FF2EA3;}
	.st3{fill:#2D9BD2;}
</style>
<g>
	<path class="st2" d="M679.39,269.69c69.22,0,138.46,0.89,207.67-0.38c34.11-0.63,36.62,10.46,22.46,38.57
		c-98.54,195.56-195.33,392.01-294.19,587.4c-41.53,82.09-107.43,112.35-204,103.12c-37.7-3.6-20.06-21.37-12.51-36.55
		C467.07,824.53,535.73,687.4,604.25,550.2c13.55-27.13,26.68-54.48,40.62-81.41c13.94-26.93,9.76-39.31-24.02-38.75
		c-86.09,1.44-172.31-1.8-258.28,1.64c-46.59,1.86-45.38-17.7-33.79-50.6c23.65-67.16,80.73-110.3,153.07-111.69
		c65.83-1.26,131.69-0.27,197.54-0.27C679.39,269.32,679.39,269.5,679.39,269.69z"/>
	<path class="st3" d="M446.88,0.19c43.95,0,87.9,0.44,131.83-0.18c23.74-0.34,32.19,5.37,25.81,32.37
		C587.65,103.72,530.01,154.91,453.26,160c-28.63,1.9-57.48,2.2-86.16,1.18c-97.9-3.46-200.07,95.16-203.05,181.38
		c-3.88,112.37,60.09,199.5,172.77,219.04c33,5.72,48.67,17.06,43.03,51.34c-1.35,8.22-0.24,16.86-0.25,25.3
		c-0.07,93-13.2,103.04-102.84,78.66c-231.56-63-344.8-309.62-232.85-521.36C105,80.01,203.05,6.89,340.43,1.22
		C375.85-0.24,411.39,1,446.88,1C446.88,0.73,446.88,0.46,446.88,0.19z"/>
</g>
</svg>
